<svg width="32" height="32" viewBox="0 0 32 32" fill="none" xmlns="http://www.w3.org/2000/svg">
<path fill-rule="evenodd" clip-rule="evenodd" d="M5.33339 0C3.36971 0 1.77783 1.59188 1.77783 3.55556V28.4444C1.77783 30.4081 3.36971 32 5.33339 32H26.6667C28.6304 32 30.2223 30.4081 30.2223 28.4444V9.21064C30.2223 8.48122 29.9235 7.78363 29.3955 7.28036L22.53 0.736392C22.0341 0.263692 21.3752 0 20.6901 0H5.33339ZM3.55561 3.55556C3.55561 2.57372 4.35155 1.77778 5.33339 1.77778H19.5556V7.04335C19.5556 8.51611 20.7495 9.71001 22.2223 9.71001H28.4445V28.4444C28.4445 29.4263 27.6486 30.2222 26.6667 30.2222H5.33339C4.35155 30.2222 3.55561 29.4263 3.55561 28.4444V3.55556ZM27.5027 7.93223L21.3334 2.05182V7.04335C21.3334 7.53427 21.7314 7.93223 22.2223 7.93223H27.5027Z" fill="#002EFF"/>
<path d="M8.02439 15.1111C7.53347 15.1111 7.1355 15.5091 7.1355 16C7.1355 16.4909 7.53347 16.8889 8.02439 16.8889H20.4688C20.9598 16.8889 21.3577 16.4909 21.3577 16C21.3577 15.5091 20.9598 15.1111 20.4688 15.1111H8.02439Z" fill="#FD6C98"/>
<path d="M8.02439 22.2222C7.53347 22.2222 7.1355 22.6202 7.1355 23.1111C7.1355 23.602 7.53347 24 8.02439 24H15.4911C15.982 24 16.3799 23.602 16.3799 23.1111C16.3799 22.6202 15.982 22.2222 15.4911 22.2222H8.02439Z" fill="#FD6C98"/>
</svg>
