<svg width="32" height="32" viewBox="0 0 32 32" fill="none" xmlns="http://www.w3.org/2000/svg">
<path fill-rule="evenodd" clip-rule="evenodd" d="M20.964 23.1111C23.7703 19.1421 26.6645 13.8622 26.6645 10.5651C26.6645 4.73015 21.8898 0 16 0C10.1102 0 5.33548 4.73015 5.33548 10.5651C5.33548 13.8622 8.22968 19.1421 11.036 23.1111H5.77984C5.22038 23.1111 4.69358 23.3746 4.3579 23.8222L0.358711 29.1556C-0.520095 30.3275 0.315975 32 1.78065 32H30.2194C31.684 32 32.5201 30.3275 31.6413 29.1556L27.6421 23.8222C27.3064 23.3746 26.7796 23.1111 26.2202 23.1111H20.964ZM24.8871 10.5651C24.8871 11.6399 24.4475 13.2072 23.6016 15.0925C22.7765 16.9316 21.6453 18.899 20.4486 20.7142C19.2519 22.5292 18.0182 24.149 17.0078 25.2962C16.6166 25.7404 16.2769 26.0931 16 26.352C15.7231 26.0931 15.3834 25.7404 14.9922 25.2962C13.9818 24.149 12.7481 22.5292 11.5514 20.7142C10.3547 18.899 9.22354 16.9316 8.39838 15.0925C7.55252 13.2072 7.1129 11.6399 7.1129 10.5651C7.1129 5.72799 11.0757 1.77778 16 1.77778C20.9243 1.77778 24.8871 5.72799 24.8871 10.5651ZM15.4908 26.7705C15.4653 26.7853 15.4686 26.7804 15.4971 26.7667L15.4908 26.7705ZM16.5264 26.7794C16.5264 26.7794 16.5178 26.7739 16.5029 26.7667L16.5092 26.7705C16.5213 26.7775 16.5264 26.7794 16.5264 26.7794ZM19.6462 24.8889C17.9946 27.0089 16.5525 28.4444 16 28.4444C15.4475 28.4444 14.0054 27.0089 12.3538 24.8889H5.77984L1.78065 30.2222H30.2194L26.2202 24.8889H19.6462Z" fill="#002EFF"/>
<path fill-rule="evenodd" clip-rule="evenodd" d="M16 4.64197C13.0545 4.64197 10.6667 7.02978 10.6667 9.9753C10.6667 12.9208 13.0545 15.3086 16 15.3086C18.9455 15.3086 21.3334 12.9208 21.3334 9.9753C21.3334 7.02978 18.9455 4.64197 16 4.64197ZM12.4445 9.9753C12.4445 8.01162 14.0363 6.41975 16 6.41975C17.9637 6.41975 19.5556 8.01162 19.5556 9.9753C19.5556 11.939 17.9637 13.5309 16 13.5309C14.0363 13.5309 12.4445 11.939 12.4445 9.9753Z" fill="#FD6C98"/>
</svg>
