<svg width="48" height="48" viewBox="0 0 48 48" fill="none" xmlns="http://www.w3.org/2000/svg">
<path d="M22.3503 14C21.835 14 21.3308 14.144 20.8985 14.4145L12.1713 19.8765L5.04297 21.6026C2.0785 22.3205 0 24.8903 0 27.8376V29.4286C0 30.8487 1.19391 32 2.66667 32H8V29.4286H2.66667V27.8376C2.66667 26.0692 3.91377 24.5273 5.69245 24.0966L12.8207 22.3705C13.1056 22.3015 13.3767 22.1877 13.623 22.0335L22.3503 16.5714L33.4522 16.5714C35.7304 16.5714 37.9606 17.203 39.877 18.391C43.2777 20.4991 45.3333 24.1299 45.3333 28.0282V29.4286H41.3333V32H46.6667C47.403 32 48 31.4244 48 30.7143V28.0282C48 23.2549 45.4829 18.8092 41.319 16.228C38.9725 14.7734 36.2418 14 33.4522 14H22.3503Z" fill="#002EFF"/>
<path d="M33.3333 29.4286L15.9161 29.4286V32L33.3333 32V29.4286Z" fill="#002EFF"/>
<path fill-rule="evenodd" clip-rule="evenodd" d="M17.3333 32.0001C17.3333 34.9456 14.9455 37.3334 12 37.3334C9.05444 37.3334 6.66663 34.9456 6.66663 32.0001C6.66663 29.0546 9.05444 26.6667 12 26.6667C14.9455 26.6667 17.3333 29.0546 17.3333 32.0001ZM14.6666 32.0001C14.6666 33.4728 13.4727 34.6667 12 34.6667C10.5272 34.6667 9.33329 33.4728 9.33329 32.0001C9.33329 30.5273 10.5272 29.3334 12 29.3334C13.4727 29.3334 14.6666 30.5273 14.6666 32.0001Z" fill="#FD6C98"/>
<path fill-rule="evenodd" clip-rule="evenodd" d="M42.6666 32.0001C42.6666 34.9456 40.2788 37.3334 37.3333 37.3334C34.3878 37.3334 32 34.9456 32 32.0001C32 29.0546 34.3878 26.6667 37.3333 26.6667C40.2788 26.6667 42.6666 29.0546 42.6666 32.0001ZM40 32.0001C40 33.4728 38.8061 34.6667 37.3333 34.6667C35.8605 34.6667 34.6666 33.4728 34.6666 32.0001C34.6666 30.5273 35.8605 29.3334 37.3333 29.3334C38.8061 29.3334 40 30.5273 40 32.0001Z" fill="#FD6C98"/>
</svg>
