<svg width="48" height="48" viewBox="0 0 48 48" fill="none" xmlns="http://www.w3.org/2000/svg">
<path fill-rule="evenodd" clip-rule="evenodd" d="M37.5714 48C40.4118 48 42.7143 45.6975 42.7143 42.8571V12C42.7143 5.37258 37.3417 0 30.7143 0H10.1429C7.30254 0 5 2.30254 5 5.14286V42.8571C5 45.6975 7.30254 48 10.1429 48H18.7143V38.2857C18.7143 36.0766 20.5051 34.2857 22.7143 34.2857H25C27.2091 34.2857 29 36.0766 29 38.2857V48H37.5714ZM30.7143 3H10.1429C9 3 7.7 4 7.7 5.14286V42.8571C7.7 44 9 45.3 10.1429 45.3H15.7143V38.2857C15.7143 33.8674 18.296 31.2857 22.7143 31.2857H25C29.4183 31.2857 32 33.8674 32 38.2857V45.3H37.5714C39 45.3 40 44 40 42.8571V12C40 7.58172 35.1326 3 30.7143 3Z" fill="#002EFF"/>
<path fill-rule="evenodd" clip-rule="evenodd" d="M13.65 12C13.65 11.2544 14.2544 10.65 15 10.65H33C33.7456 10.65 34.35 11.2544 34.35 12C34.35 12.7456 33.7456 13.35 33 13.35H15C14.2544 13.35 13.65 12.7456 13.65 12Z" fill="#FD6C98"/>
<path fill-rule="evenodd" clip-rule="evenodd" d="M13.65 22C13.65 21.2544 14.2544 20.65 15 20.65H33C33.7456 20.65 34.35 21.2544 34.35 22C34.35 22.7456 33.7456 23.35 33 23.35H15C14.2544 23.35 13.65 22.7456 13.65 22Z" fill="#FD6C98"/>
</svg>
