<svg width="48" height="48" viewBox="0 0 48 48" fill="none" xmlns="http://www.w3.org/2000/svg">
<path fill-rule="evenodd" clip-rule="evenodd" d="M24 45C35.598 45 45 35.598 45 24C45 12.402 35.598 3 24 3C12.402 3 3 12.402 3 24C3 35.598 12.402 45 24 45ZM24 48C37.2548 48 48 37.2548 48 24C48 10.7452 37.2548 0 24 0C10.7452 0 0 10.7452 0 24C0 37.2548 10.7452 48 24 48Z" fill="#002EFF"/>
<path fill-rule="evenodd" clip-rule="evenodd" d="M17.4052 12.3482C18.2723 11.8587 19.332 11.887 20.1727 12.4222L34.7182 21.6815C35.4976 22.1777 35.9793 23.0404 35.9993 23.9764C36.0194 24.9123 35.5752 25.7957 34.8178 26.326L20.2724 36.5112C19.4378 37.0956 18.3539 37.1609 17.4576 36.6806C16.5612 36.2004 16 35.2538 16 34.2222V14.7778C16 13.768 16.538 12.8377 17.4052 12.3482ZM18.7273 34.2222L33.2727 24.037L18.7273 14.7778V34.2222Z" fill="#FD6C98"/>
</svg>
