<svg width="25" height="24" viewBox="0 0 25 24" fill="none" xmlns="http://www.w3.org/2000/svg">
<path d="M23.7309 1.70729C24.1214 1.31675 24.1215 0.683526 23.7309 0.29295C23.3404 -0.0976259 22.7072 -0.0976535 22.3166 0.292888L12.0217 10.5869L1.73091 0.300578C1.34026 -0.0898957 0.707042 -0.0897572 0.316568 0.300887C-0.0739051 0.691531 -0.0737667 1.32475 0.316877 1.71523L10.6073 12.0011L0.316754 22.2908C-0.0738221 22.6813 -0.0738498 23.3146 0.316692 23.7051C0.707234 24.0957 1.34045 24.0957 1.73103 23.7052L12.0219 13.4152L22.3167 23.7054C22.7073 24.0959 23.3406 24.0958 23.731 23.7051C24.1215 23.3145 24.1214 22.6813 23.7307 22.2908L13.4363 12.0009L23.7309 1.70729Z" fill="#002EFF"/>
</svg>
