<svg width="48" height="48" viewBox="0 0 48 48" fill="none" xmlns="http://www.w3.org/2000/svg">
<path fill-rule="evenodd" clip-rule="evenodd" d="M44 17.7H4C3.28203 17.7 2.7 18.282 2.7 19V31C2.7 31.718 3.28203 32.3 4 32.3H44C44.718 32.3 45.3 31.718 45.3 31V19C45.3 18.282 44.718 17.7 44 17.7ZM4 15C1.79086 15 0 16.7909 0 19V31C0 33.2091 1.79086 35 4 35H44C46.2091 35 48 33.2091 48 31V19C48 16.7909 46.2091 15 44 15H4Z" fill="#002EFF"/>
<path fill-rule="evenodd" clip-rule="evenodd" d="M14 11.3C15.8225 11.3 17.3 9.82254 17.3 8C17.3 6.17746 15.8225 4.7 14 4.7C12.1775 4.7 10.7 6.17746 10.7 8C10.7 9.82254 12.1775 11.3 14 11.3ZM14 14C17.3137 14 20 11.3137 20 8C20 4.68629 17.3137 2 14 2C10.6863 2 8 4.68629 8 8C8 11.3137 10.6863 14 14 14Z" fill="#FD6C98"/>
<path fill-rule="evenodd" clip-rule="evenodd" d="M34 11.3C35.8225 11.3 37.3 9.82254 37.3 8C37.3 6.17746 35.8225 4.7 34 4.7C32.1775 4.7 30.7 6.17746 30.7 8C30.7 9.82254 32.1775 11.3 34 11.3ZM34 14C37.3137 14 40 11.3137 40 8C40 4.68629 37.3137 2 34 2C30.6863 2 28 4.68629 28 8C28 11.3137 30.6863 14 34 14Z" fill="#FD6C98"/>
<path fill-rule="evenodd" clip-rule="evenodd" d="M14 45.3C15.8225 45.3 17.3 43.8225 17.3 42C17.3 40.1775 15.8225 38.7 14 38.7C12.1775 38.7 10.7 40.1775 10.7 42C10.7 43.8225 12.1775 45.3 14 45.3ZM14 48C17.3137 48 20 45.3137 20 42C20 38.6863 17.3137 36 14 36C10.6863 36 8 38.6863 8 42C8 45.3137 10.6863 48 14 48Z" fill="#FD6C98"/>
<path fill-rule="evenodd" clip-rule="evenodd" d="M34 45.3C35.8225 45.3 37.3 43.8225 37.3 42C37.3 40.1775 35.8225 38.7 34 38.7C32.1775 38.7 30.7 40.1775 30.7 42C30.7 43.8225 32.1775 45.3 34 45.3ZM34 48C37.3137 48 40 45.3137 40 42C40 38.6863 37.3137 36 34 36C30.6863 36 28 38.6863 28 42C28 45.3137 30.6863 48 34 48Z" fill="#FD6C98"/>
</svg>
