<svg width="48" height="48" viewBox="0 0 48 48" fill="none" xmlns="http://www.w3.org/2000/svg">
<path d="M27.4882 5.80771C28.9403 4.67186 30.7513 4.00004 32.7173 4.00004C37.4515 4.00004 41.3334 7.92041 41.3334 12.8112C41.3334 17.702 37.4515 21.6224 32.7173 21.6224C31.5889 21.6224 30.514 21.4013 29.5293 21L28.673 23.1011C27.9166 23.2787 27.1816 23.5086 26.4728 23.7867L27.4466 26.2692C28.9807 25.6674 30.6688 25.3334 32.4451 25.3334C38.4695 25.3334 43.7784 29.394 45.0459 34.9463C45.1052 35.206 45.036 35.4358 44.8555 35.6314C44.6616 35.8415 44.3403 36 43.96 36H34.2229V38.6667H43.96C46.0932 38.6667 48.2119 36.8333 47.6457 34.3528C46.4333 29.0419 42.2838 24.9497 37.1448 23.3726C41.1841 21.6183 44 17.5372 44 12.8112C44 6.49671 38.9729 1.33337 32.7173 1.33337C30.1306 1.33337 27.7461 2.22039 25.8452 3.70729L27.4882 5.80771Z" fill="#FD6C98"/>
<path fill-rule="evenodd" clip-rule="evenodd" d="M25.0172 27.8909C29.9373 25.5238 33.3332 20.4918 33.3332 14.6667C33.3332 6.56649 26.7667 0 18.6665 0C10.5663 0 3.99986 6.56649 3.99986 14.6667C3.99986 20.4738 7.37486 25.4927 12.2704 27.8689C5.87785 30.3645 1.15853 36.491 0.186054 43.8316C-0.128946 46.2093 1.84584 48 3.99986 48H33.2978C35.4728 48 37.4545 46.1759 37.1099 43.7833C36.0393 36.3503 31.2366 30.3622 25.0172 27.8909ZM6.66652 14.6667C6.66652 8.03925 12.0391 2.66667 18.6665 2.66667C25.2939 2.66667 30.6665 8.03925 30.6665 14.6667C30.6665 21.2941 25.2939 26.6667 18.6665 26.6667C12.0391 26.6667 6.66652 21.2941 6.66652 14.6667ZM18.6665 29.3333C10.6839 29.3333 3.95201 35.7096 2.82962 44.1818C2.75778 44.7241 3.20836 45.3333 3.99986 45.3333H33.2978C34.0958 45.3333 34.5496 44.7135 34.4704 44.1635C33.223 35.5027 26.2928 29.3333 18.6665 29.3333Z" fill="#002EFF"/>
</svg>
