<svg width="48" height="48" viewBox="0 0 48 48" fill="none" xmlns="http://www.w3.org/2000/svg">
<path fill-rule="evenodd" clip-rule="evenodd" d="M3.9057 26.7742V4.03226C3.9057 2.35759 5.28978 1 6.99713 1H41.0029C42.7102 1 44.0943 2.35759 44.0943 4.03226V26.7742L47.9302 44.3324C48.3426 46.22 46.8755 48 44.9074 48H3.09261C1.12447 48 -0.34258 46.22 0.0698031 44.3324L3.9057 26.7742ZM6.99713 4.03226H41.0029V26.7742H6.99713L6.99713 4.03226ZM6.40486 29.8065L3.09261 44.9677H44.9074L41.5951 29.8065H6.40486Z" fill="#002EFF"/>
<path d="M10.5169 39C9.67912 39 9 39.6716 9 40.5C9 41.3284 9.67912 42 10.5169 42H37.4831C38.3209 42 39 41.3284 39 40.5C39 39.6716 38.3209 39 37.4831 39H10.5169Z" fill="#FD6C98"/>
</svg>
