<svg width="200" height="157" viewBox="0 0 200 157" fill="none" xmlns="http://www.w3.org/2000/svg">
<path d="M15.2091 137.357C16.4193 148.224 26.1327 156.105 37.0161 155.05L167.071 142.441C176.203 141.556 183.562 134.571 184.921 125.497L196.95 45.1727C198.62 34.0234 190.75 23.6979 179.556 22.3533L37.5834 5.29807C18.3837 2.99161 2.0493 19.1853 4.18956 38.4043L15.2091 137.357Z" fill="#002EFF"/>
<path fill-rule="evenodd" clip-rule="evenodd" d="M69.4667 87.6265C69.4667 87.6265 67.3622 87.4417 67.3622 88.9986C67.3622 97.7931 74.5069 104.061 85.7317 104.061C94.0638 104.061 97.6218 102.22 102.654 98.7631C103.831 97.9532 105.086 97.1986 106.038 98.1514C106.701 98.8031 115.541 106.29 115.541 106.29C116.649 107.243 116.346 108.381 115.158 109.294C113.979 110.21 100.76 119.63 85.57 119.63C65.7019 119.63 46.6261 111.699 46.6261 81.8276C46.6261 57.7479 61.4949 44.1531 83.3099 44.1531C106.742 44.1531 119.987 59.1657 119.987 79.4113V84.5337C119.987 86.6222 118.141 87.6265 116.618 87.6265H69.4667ZM97.3639 67.093C95.1038 62.71 90.4259 59.4418 83.3099 59.4418C76.202 59.4418 71.518 62.71 69.2558 67.093C67.9641 69.7857 67.4707 71.7714 67.309 75.0224H99.3087C99.145 71.7714 98.6557 69.7857 97.3639 67.093Z" fill="white"/>
<path fill-rule="evenodd" clip-rule="evenodd" d="M134.085 47.7116C132.713 46.8893 130.567 47.0267 129.328 47.9922L121.44 54.1952C120.2 55.1684 120.304 56.6524 121.654 57.5095C121.654 57.5095 133.838 65.1656 133.838 81.6444C133.838 97.2661 120.993 106.269 120.993 106.269C119.699 107.174 119.644 108.711 120.884 109.686L128.712 115.788C129.951 116.763 132.099 116.881 133.484 116.092C133.484 116.092 151.884 105.356 151.884 81.7005C151.884 58.2099 134.085 47.7116 134.085 47.7116Z" fill="#FF3D00"/>
</svg>
